<?xml version="1.0" standalone="no"?>
<!DOCTYPE svg PUBLIC "-//W3C//DTD SVG 20010904//EN"
 "http://www.w3.org/TR/2001/REC-SVG-20010904/DTD/svg10.dtd">
<svg version="1.0" xmlns="http://www.w3.org/2000/svg"
 width="500.000000pt" height="500.000000pt" viewBox="0 0 500.000000 500.000000"
 preserveAspectRatio="xMidYMid meet">
<metadata>
Created by potrace 1.16, written by Peter Selinger 2001-2019
</metadata>
<g transform="translate(0.000000,500.000000) scale(0.100000,-0.100000)"
fill="#000000" stroke="none">
<path d="M0 2500 l0 -2500 2500 0 2500 0 0 2500 0 2500 -2500 0 -2500 0 0
-2500z m2630 1442 c0 -5 -46 -12 -102 -15 -537 -31 -1023 -406 -1196 -922 -35
-104 -65 -244 -60 -280 3 -22 10 -16 60 53 32 42 92 115 134 162 79 88 107
132 119 188 3 17 11 32 17 32 7 0 9 -27 6 -78 -5 -89 -35 -165 -98 -248 l-39
-52 20 -59 c28 -80 28 -180 -1 -277 l-23 -77 31 -32 c63 -66 101 -172 102
-284 l0 -61 53 -30 c72 -40 133 -110 173 -197 19 -41 34 -78 34 -83 0 -5 24
-12 52 -15 79 -10 172 -60 244 -133 l62 -63 61 10 c116 21 226 -16 435 -146
93 -57 165 -85 224 -85 47 0 169 43 285 101 365 181 623 503 723 902 20 80 27
136 31 262 6 179 -7 295 -52 448 -28 99 -28 97 -16 97 10 0 45 -107 67 -206
24 -107 30 -378 10 -501 -31 -197 -121 -418 -237 -583 -73 -105 -247 -275
-349 -342 -171 -113 -406 -207 -558 -224 -48 -6 -63 -13 -97 -45 -71 -71 -117
-81 -380 -87 -199 -4 -235 -7 -267 -23 -21 -11 -43 -19 -49 -19 -19 0 41 59
88 87 78 46 134 55 318 55 94 -1 186 3 205 8 26 6 6 8 -76 9 -62 1 -149 8
-193 16 -79 15 -84 15 -137 -5 -102 -38 -207 -20 -454 76 -100 39 -123 45
-180 43 -36 -1 -65 2 -64 7 2 21 100 46 184 47 93 0 134 -10 286 -71 55 -22
115 -42 134 -46 23 -4 10 4 -35 22 -80 33 -162 74 -217 108 -29 19 -52 24
-102 24 -35 0 -83 7 -106 15 -54 19 -168 101 -285 205 -95 84 -134 108 -191
117 -18 3 -34 10 -34 16 0 6 33 8 87 5 78 -4 96 -8 159 -41 39 -21 120 -81
183 -135 62 -54 127 -107 144 -117 39 -22 32 -15 -61 65 -41 34 -101 96 -134
136 -34 41 -68 74 -77 74 -34 0 -118 49 -156 91 -44 48 -134 189 -184 287 -36
71 -82 127 -122 148 -16 8 -29 19 -29 24 0 15 47 1 112 -33 96 -50 160 -129
267 -332 17 -33 42 -73 56 -90 14 -17 -3 24 -39 95 -35 69 -72 151 -82 183
-10 31 -21 57 -26 57 -14 0 -87 70 -107 104 -28 44 -57 156 -85 328 -25 146
-40 193 -78 234 -11 13 -15 24 -10 28 16 10 115 -87 144 -141 36 -66 54 -135
78 -291 11 -74 25 -141 30 -150 9 -13 10 -11 5 13 -14 77 -24 187 -25 262 0
74 -3 87 -30 129 -59 93 -59 173 -3 463 24 128 25 137 10 190 -17 61 -14 77
10 46 75 -98 91 -235 49 -435 -14 -69 -26 -141 -25 -160 0 -22 8 -1 20 59 62
296 230 576 459 765 199 165 414 267 655 310 89 16 245 21 245 8z m-93 -629
c150 -50 263 -164 312 -315 12 -36 15 -38 55 -38 152 0 329 -126 410 -292 53
-108 69 -185 64 -298 -15 -282 -220 -520 -465 -537 -131 -9 -235 31 -342 131
-65 62 -120 143 -151 225 l-22 61 -249 0 c-215 0 -249 2 -249 15 0 12 14 15
70 15 l70 0 0 515 0 515 -70 0 c-58 0 -70 3 -70 16 0 14 29 16 288 12 256 -4
294 -7 349 -25z"/>
<path d="M1226 3148 c-37 -196 -44 -347 -19 -401 l18 -39 1 64 c1 34 13 120
28 189 28 134 32 239 13 302 -12 38 -13 35 -41 -115z"/>
<path d="M1567 3028 c-8 -13 -49 -61 -91 -108 -116 -130 -192 -241 -205 -302
-14 -64 -8 -71 17 -21 11 21 65 88 119 149 98 110 152 194 171 267 12 43 10
46 -11 15z"/>
<path d="M1096 2733 c7 -32 21 -112 33 -178 28 -167 55 -249 96 -293 l34 -37
-19 61 c-10 33 -26 111 -35 174 -20 138 -45 220 -84 283 -17 26 -32 47 -34 47
-2 0 2 -26 9 -57z"/>
<path d="M1385 2689 c-81 -93 -118 -167 -116 -232 1 -60 30 -227 40 -227 3 0
14 32 24 71 9 38 40 127 68 197 50 124 74 242 53 255 -5 3 -36 -26 -69 -64z"/>
<path d="M1463 2608 c-12 -35 -40 -112 -62 -171 -53 -140 -74 -230 -66 -284 8
-54 21 -55 28 -4 2 21 27 94 55 162 59 148 75 213 70 297 l-3 63 -22 -63z"/>
<path d="M1421 2267 c-27 -65 -35 -100 -39 -168 -4 -80 -2 -89 26 -145 17 -32
45 -82 64 -111 l33 -52 -3 232 c-2 179 -6 242 -18 274 -9 24 -19 45 -23 47 -3
3 -22 -32 -40 -77z"/>
<path d="M1522 2040 c3 -231 4 -236 30 -292 30 -64 44 -75 32 -25 -4 17 -7
111 -5 207 2 180 -9 255 -44 318 -14 25 -15 6 -13 -208z"/>
<path d="M1112 2234 c9 -11 41 -66 73 -123 97 -180 176 -285 237 -317 42 -22
41 -18 -3 38 -22 29 -57 84 -76 123 -74 146 -153 248 -218 282 -29 15 -30 15
-13 -3z"/>
<path d="M1600 1852 c0 -158 15 -202 97 -279 36 -34 85 -75 108 -92 l43 -31
-33 68 c-18 37 -56 135 -85 218 -48 141 -93 224 -121 224 -5 0 -9 -48 -9 -108z"/>
<path d="M1695 1895 c5 -11 27 -74 50 -140 71 -202 104 -274 151 -323 50 -52
65 -51 34 1 -11 19 -40 93 -64 165 -52 153 -94 237 -143 283 -26 24 -34 28
-28 14z"/>
<path d="M1317 1737 c12 -7 53 -40 90 -73 183 -163 293 -234 363 -234 l35 0
-50 29 c-27 16 -88 63 -135 105 -101 91 -175 142 -242 168 -57 21 -96 25 -61
5z"/>
<path d="M1892 1583 c23 -77 66 -165 100 -204 28 -33 77 -57 191 -98 49 -17
90 -31 91 -31 2 0 -26 30 -63 68 -36 37 -104 114 -150 172 -81 103 -124 142
-168 154 l-21 7 20 -68z"/>
<path d="M2006 1588 c22 -24 66 -75 97 -115 97 -122 166 -191 219 -217 73 -36
85 -32 36 12 -22 20 -81 87 -130 149 -92 116 -134 156 -205 192 -60 30 -62 27
-17 -21z"/>
<path d="M2471 1383 c199 -119 260 -146 339 -151 74 -5 75 -1 5 25 -27 11 -95
48 -149 82 -55 35 -122 74 -150 86 -49 22 -139 45 -173 45 -9 0 48 -39 128
-87z"/>
<path d="M2273 1393 c60 -77 123 -136 172 -162 35 -18 57 -21 170 -21 l130 1
-97 49 c-54 27 -138 75 -187 105 -110 68 -150 85 -196 85 l-36 0 44 -57z"/>
<path d="M1691 1353 c-31 -4 -27 -7 50 -35 321 -115 381 -130 466 -113 l38 8
-70 17 c-38 10 -122 39 -185 64 -99 38 -221 69 -255 64 -5 -1 -25 -3 -44 -5z"/>
<path d="M2670 1159 c-19 -4 -111 -8 -205 -7 -174 1 -240 -9 -305 -47 -23 -13
-8 -14 150 -14 96 0 208 4 247 9 69 9 144 38 158 60 7 11 4 11 -45 -1z"/>
<path d="M2200 2795 l0 -515 95 0 95 0 -6 78 c-16 204 101 439 269 537 l49 28
-7 46 c-17 124 -70 233 -137 281 -61 45 -126 60 -250 60 l-108 0 0 -515z"/>
<path d="M2877 2843 c14 -225 -83 -434 -244 -525 -61 -34 -62 -39 -39 -169 24
-132 76 -217 160 -262 61 -32 192 -31 259 2 62 30 112 96 140 185 20 66 22 90
22 331 0 290 -6 330 -67 421 -41 61 -99 94 -178 101 l-59 6 6 -90z"/>
<path d="M2663 2832 c-56 -77 -83 -194 -83 -371 0 -101 0 -104 19 -87 28 25
70 126 87 207 9 45 14 112 12 182 l-3 112 -32 -43z"/>
</g>
</svg>
